<svg width="475" height="249" viewBox="0 0 475 249" fill="none" xmlns="http://www.w3.org/2000/svg">
<path d="M46.6406 185H41.0156V55.625H46.6406V185ZM35.3906 185H29.7656V55.625H35.3906V185ZM24.1406 185H18.5156V55.625H24.1406V185ZM12.8906 185H7.26562V55.625H12.8906V185ZM87.7344 120.312L120.781 55.625H127.031L93.9844 120.312L127.031 185H120.781L87.7344 120.312ZM75.1562 120.312L108.203 55.625H114.453L81.4062 120.312L114.453 185H108.203L75.1562 120.312ZM62.5781 120.312L95.625 55.625H101.875L68.8281 120.312L101.875 185H95.625L62.5781 120.312ZM49.9219 120.312L83.0469 55.625H89.2969L56.1719 120.312L89.2969 185H83.0469L49.9219 120.312ZM171.641 55.625H177.266V185H171.641V55.625ZM160.391 55.625H166.016V185H160.391V55.625ZM149.141 55.625H154.766V185H149.141V55.625ZM137.891 55.625H143.516V185H137.891V55.625ZM283.984 122.734L278.359 113.438V55.625H283.984V122.734ZM295.234 141.172L289.609 131.719V55.625H295.234V141.172ZM306.484 159.844L300.859 150.312V55.625H306.484V159.844ZM225.859 117.891L231.484 127.188V185H225.859V117.891ZM214.609 99.4531L220.234 108.906V185H214.609V99.4531ZM203.359 80.7812L208.984 90.3125V185H203.359V80.7812ZM205.312 55.625H211.875L291.406 185H284.844L205.312 55.625ZM218.594 55.625H225.234L304.688 185H297.969L218.594 55.625ZM231.797 55.625H238.359L312.109 175.859V55.625H317.734V185C317.734 185 315.521 185 311.094 185L231.797 55.625ZM197.734 64.7656V185H192.109V55.625C192.109 55.625 194.349 55.625 198.828 55.625L278.125 185H271.641L197.734 64.7656ZM378.125 98.4375C372.083 104.479 369.062 111.771 369.062 120.312C369.062 128.854 372.083 136.146 378.125 142.188C384.167 148.229 391.458 151.25 400 151.25C408.542 151.25 415.833 148.229 421.875 142.188C427.917 136.146 430.938 128.854 430.938 120.312C430.938 111.771 427.917 104.479 421.875 98.4375C415.833 92.3958 408.542 89.375 400 89.375C391.458 89.375 384.167 92.3958 378.125 98.4375ZM366.328 134.531C364.401 130 363.438 125.26 363.438 120.312C363.438 115.365 364.401 110.651 366.328 106.172C368.255 101.641 370.859 97.7344 374.141 94.4531C377.422 91.1719 381.302 88.5677 385.781 86.6406C390.312 84.7135 395.052 83.75 400 83.75C404.948 83.75 409.661 84.7135 414.141 86.6406C418.672 88.5677 422.578 91.1719 425.859 94.4531C429.141 97.7344 431.745 101.641 433.672 106.172C435.599 110.651 436.562 115.365 436.562 120.312C436.562 125.26 435.599 130 433.672 134.531C431.745 139.01 429.141 142.891 425.859 146.172C422.578 149.453 418.672 152.057 414.141 153.984C409.661 155.911 404.948 156.875 400 156.875C395.052 156.875 390.312 155.911 385.781 153.984C381.302 152.057 377.422 149.453 374.141 146.172C370.859 142.891 368.255 139.01 366.328 134.531ZM363.438 99.1406C359.688 105.599 357.812 112.656 357.812 120.312C357.812 127.969 359.688 135.026 363.438 141.484C367.24 147.943 372.37 153.073 378.828 156.875C385.286 160.625 392.344 162.5 400 162.5C407.656 162.5 414.714 160.625 421.172 156.875C427.63 153.073 432.734 147.943 436.484 141.484C440.286 135.026 442.188 127.969 442.188 120.312C442.188 112.656 440.286 105.599 436.484 99.1406C432.734 92.6823 427.63 87.5781 421.172 83.8281C414.714 80.026 407.656 78.125 400 78.125C392.344 78.125 385.286 80.026 378.828 83.8281C372.37 87.5781 367.24 92.6823 363.438 99.1406ZM358.594 144.297C354.323 136.953 352.188 128.958 352.188 120.312C352.188 111.667 354.323 103.672 358.594 96.3281C362.865 88.9844 368.672 83.1771 376.016 78.9062C383.359 74.6354 391.354 72.5 400 72.5C408.646 72.5 416.641 74.6354 423.984 78.9062C431.328 83.1771 437.135 88.9844 441.406 96.3281C445.677 103.672 447.812 111.667 447.812 120.312C447.812 128.958 445.677 136.953 441.406 144.297C437.135 151.641 431.328 157.448 423.984 161.719C416.641 165.99 408.646 168.125 400 168.125C391.354 168.125 383.359 165.99 376.016 161.719C368.672 157.448 362.865 151.641 358.594 144.297ZM350.781 99.5312C347.969 106.146 346.562 113.073 346.562 120.312C346.562 127.552 347.969 134.479 350.781 141.094C353.594 147.708 357.37 153.411 362.109 158.203C366.901 162.943 372.604 166.719 379.219 169.531C385.833 172.344 392.76 173.75 400 173.75C407.24 173.75 414.167 172.344 420.781 169.531C427.396 166.719 433.073 162.943 437.812 158.203C442.604 153.411 446.406 147.708 449.219 141.094C452.031 134.479 453.438 127.552 453.438 120.312C453.438 113.073 452.031 106.146 449.219 99.5312C446.406 92.9167 442.604 87.2396 437.812 82.5C433.073 77.7083 427.396 73.9062 420.781 71.0938C414.167 68.2812 407.24 66.875 400 66.875C392.76 66.875 385.833 68.2812 379.219 71.0938C372.604 73.9062 366.901 77.7083 362.109 82.5C357.37 87.2396 353.594 92.9167 350.781 99.5312ZM348.828 149.922C343.568 140.859 340.938 130.99 340.938 120.312C340.938 109.635 343.568 99.7656 348.828 90.7031C354.141 81.6406 361.328 74.4792 370.391 69.2188C379.453 63.9062 389.323 61.25 400 61.25C410.677 61.25 420.547 63.9062 429.609 69.2188C438.672 74.4792 445.833 81.6406 451.094 90.7031C456.406 99.7656 459.062 109.635 459.062 120.312C459.062 130.99 456.406 140.859 451.094 149.922C445.833 158.984 438.672 166.172 429.609 171.484C420.547 176.745 410.677 179.375 400 179.375C389.323 179.375 379.453 176.745 370.391 171.484C361.328 166.172 354.141 158.984 348.828 149.922ZM340.391 95.2344C337.005 103.203 335.312 111.562 335.312 120.312C335.312 129.062 337.005 137.448 340.391 145.469C343.828 153.438 348.438 160.312 354.219 166.094C360 171.875 366.875 176.484 374.844 179.922C382.865 183.307 391.25 185 400 185C408.75 185 417.109 183.307 425.078 179.922C433.099 176.484 440 171.875 445.781 166.094C451.562 160.312 456.146 153.438 459.531 145.469C462.969 137.448 464.688 129.062 464.688 120.312C464.688 111.562 462.969 103.203 459.531 95.2344C456.146 87.2135 451.562 80.3125 445.781 74.5312C440 68.75 433.099 64.1667 425.078 60.7812C417.109 57.3438 408.75 55.625 400 55.625C391.25 55.625 382.865 57.3438 374.844 60.7812C366.875 64.1667 360 68.75 354.219 74.5312C348.438 80.3125 343.828 87.2135 340.391 95.2344ZM335.234 147.656C331.536 138.958 329.688 129.844 329.688 120.312C329.688 110.781 331.536 101.693 335.234 93.0469C338.984 84.349 343.984 76.875 350.234 70.625C356.536 64.3229 364.01 59.3229 372.656 55.625C381.354 51.875 390.469 50 400 50C409.531 50 418.62 51.875 427.266 55.625C435.964 59.3229 443.438 64.3229 449.688 70.625C455.99 76.875 460.99 84.349 464.688 93.0469C468.438 101.693 470.312 110.781 470.312 120.312C470.312 129.844 468.438 138.958 464.688 147.656C460.99 156.302 455.99 163.776 449.688 170.078C443.438 176.328 435.964 181.302 427.266 185C418.62 188.75 409.531 190.625 400 190.625C390.469 190.625 381.354 188.75 372.656 185C364.01 181.302 356.536 176.328 350.234 170.078C343.984 163.776 338.984 156.302 335.234 147.656Z" fill="#ED6F2B"/>
<path d="M7.60156 194.875H21.0312C23.6562 194.875 25.9375 195.266 27.875 196.047C29.8125 196.828 31.3047 197.984 32.3516 199.516C33.4141 201.047 33.9453 202.938 33.9453 205.188C33.9453 207.141 33.6406 208.773 33.0312 210.086C32.4219 211.398 31.5703 212.484 30.4766 213.344C29.3984 214.188 28.1406 214.883 26.7031 215.43L24.0078 216.953H12.7344L12.6875 210.602H21.0312C22.0781 210.602 22.9453 210.414 23.6328 210.039C24.3203 209.664 24.8359 209.133 25.1797 208.445C25.5391 207.742 25.7188 206.906 25.7188 205.938C25.7188 204.953 25.5391 204.109 25.1797 203.406C24.8203 202.703 24.2891 202.164 23.5859 201.789C22.8984 201.414 22.0469 201.227 21.0312 201.227H15.8281V229H7.60156V194.875ZM26.2812 229L18.7344 213.906L27.4531 213.859L35.0938 228.648V229H26.2812ZM53.375 202.047L45.0547 229H36.2188L48.7578 194.875H54.3594L53.375 202.047ZM60.2656 229L51.9219 202.047L50.8438 194.875H56.5156L69.125 229H60.2656ZM59.9375 216.273V222.625H42.4297V216.273H59.9375ZM100.133 194.875V229H91.9297L79.8594 207.766V229H71.6328V194.875H79.8594L91.9297 216.109V194.875H100.133ZM116.422 229H108.852L108.898 222.672H116.422C117.984 222.672 119.305 222.297 120.383 221.547C121.477 220.797 122.305 219.68 122.867 218.195C123.445 216.695 123.734 214.852 123.734 212.664V211.188C123.734 209.547 123.57 208.109 123.242 206.875C122.93 205.625 122.461 204.586 121.836 203.758C121.211 202.914 120.43 202.281 119.492 201.859C118.57 201.438 117.508 201.227 116.305 201.227H108.711V194.875H116.305C118.617 194.875 120.734 195.273 122.656 196.07C124.594 196.852 126.266 197.977 127.672 199.445C129.094 200.898 130.188 202.625 130.953 204.625C131.734 206.609 132.125 208.812 132.125 211.234V212.664C132.125 215.07 131.734 217.273 130.953 219.273C130.188 221.273 129.102 223 127.695 224.453C126.289 225.906 124.625 227.031 122.703 227.828C120.797 228.609 118.703 229 116.422 229ZM113.562 194.875V229H105.336V194.875H113.562ZM165.289 211.258V212.641C165.289 215.25 164.922 217.594 164.188 219.672C163.469 221.734 162.445 223.5 161.117 224.969C159.789 226.422 158.219 227.539 156.406 228.32C154.594 229.086 152.594 229.469 150.406 229.469C148.203 229.469 146.188 229.086 144.359 228.32C142.547 227.539 140.969 226.422 139.625 224.969C138.297 223.5 137.266 221.734 136.531 219.672C135.812 217.594 135.453 215.25 135.453 212.641V211.258C135.453 208.648 135.812 206.305 136.531 204.227C137.266 202.148 138.289 200.383 139.602 198.93C140.93 197.461 142.5 196.344 144.312 195.578C146.141 194.797 148.156 194.406 150.359 194.406C152.547 194.406 154.547 194.797 156.359 195.578C158.188 196.344 159.766 197.461 161.094 198.93C162.422 200.383 163.453 202.148 164.188 204.227C164.922 206.305 165.289 208.648 165.289 211.258ZM156.945 212.641V211.211C156.945 209.523 156.797 208.039 156.5 206.758C156.219 205.461 155.797 204.375 155.234 203.5C154.672 202.625 153.977 201.969 153.148 201.531C152.336 201.078 151.406 200.852 150.359 200.852C149.266 200.852 148.312 201.078 147.5 201.531C146.688 201.969 146.008 202.625 145.461 203.5C144.914 204.375 144.5 205.461 144.219 206.758C143.953 208.039 143.82 209.523 143.82 211.211V212.641C143.82 214.312 143.953 215.797 144.219 217.094C144.5 218.375 144.914 219.461 145.461 220.352C146.023 221.242 146.711 221.914 147.523 222.367C148.352 222.82 149.312 223.047 150.406 223.047C151.453 223.047 152.383 222.82 153.195 222.367C154.008 221.914 154.688 221.242 155.234 220.352C155.797 219.461 156.219 218.375 156.5 217.094C156.797 215.797 156.945 214.312 156.945 212.641ZM173.633 194.875H180.336L187.953 218.617L195.57 194.875H202.273L190.672 229H185.234L173.633 194.875ZM169.555 194.875H176.492L177.781 221.031V229H169.555V194.875ZM199.414 194.875H206.375V229H198.125V221.031L199.414 194.875Z" fill="#FFE9CC"/>
</svg>
